<mxfile host="app.diagrams.net" agent="Mozilla/5.0 (Windows NT 10.0; Win64; x64) AppleWebKit/537.36 (KHTML, like Gecko) Chrome/136.0.0.0 Safari/537.36" version="26.1.3">
  <diagram name="PÃ¡gina-1" id="X6_-FouDFSHh7kLTi7NU">
    <mxGraphModel dx="1434" dy="738" grid="1" gridSize="10" guides="1" tooltips="1" connect="1" arrows="1" fold="1" page="1" pageScale="1" pageWidth="827" pageHeight="1169" math="0" shadow="0">
      <root>
        <mxCell id="0" />
        <mxCell id="1" parent="0" />
        <mxCell id="GPQL5aS1j66FKNXq9pcH-1" value="" style="outlineConnect=0;dashed=0;verticalLabelPosition=bottom;verticalAlign=top;align=center;html=1;shape=mxgraph.aws3.s3;fillColor=#E05243;gradientColor=none;" vertex="1" parent="1">
          <mxGeometry x="140" y="60" width="80" height="93" as="geometry" />
        </mxCell>
        <mxCell id="GPQL5aS1j66FKNXq9pcH-2" value="&lt;span style=&quot;&quot; data-end=&quot;1078&quot; data-start=&quot;1065&quot;&gt;&lt;b&gt;Amazon S3&lt;/b&gt;&lt;/span&gt;" style="text;html=1;align=center;verticalAlign=middle;resizable=0;points=[];autosize=1;strokeColor=none;fillColor=none;" vertex="1" parent="1">
          <mxGeometry x="133.25" y="153" width="90" height="30" as="geometry" />
        </mxCell>
        <mxCell id="GPQL5aS1j66FKNXq9pcH-9" style="edgeStyle=orthogonalEdgeStyle;rounded=0;orthogonalLoop=1;jettySize=auto;html=1;" edge="1" parent="1" source="GPQL5aS1j66FKNXq9pcH-5" target="GPQL5aS1j66FKNXq9pcH-8">
          <mxGeometry relative="1" as="geometry" />
        </mxCell>
        <mxCell id="GPQL5aS1j66FKNXq9pcH-5" value="" style="outlineConnect=0;dashed=0;verticalLabelPosition=bottom;verticalAlign=top;align=center;html=1;shape=mxgraph.aws3.glue;fillColor=#F58534;gradientColor=none;" vertex="1" parent="1">
          <mxGeometry x="430" y="57" width="82.5" height="99" as="geometry" />
        </mxCell>
        <mxCell id="GPQL5aS1j66FKNXq9pcH-7" value="&lt;b&gt;AWS Glue (Spark)&lt;/b&gt;" style="text;html=1;align=center;verticalAlign=middle;resizable=0;points=[];autosize=1;strokeColor=none;fillColor=none;" vertex="1" parent="1">
          <mxGeometry x="395" y="158" width="130" height="30" as="geometry" />
        </mxCell>
        <mxCell id="GPQL5aS1j66FKNXq9pcH-8" value="" style="sketch=0;points=[[0,0,0],[0.25,0,0],[0.5,0,0],[0.75,0,0],[1,0,0],[0,1,0],[0.25,1,0],[0.5,1,0],[0.75,1,0],[1,1,0],[0,0.25,0],[0,0.5,0],[0,0.75,0],[1,0.25,0],[1,0.5,0],[1,0.75,0]];outlineConnect=0;fontColor=#232F3E;fillColor=#01A88D;strokeColor=#ffffff;dashed=0;verticalLabelPosition=bottom;verticalAlign=top;align=center;html=1;fontSize=12;fontStyle=0;aspect=fixed;shape=mxgraph.aws4.resourceIcon;resIcon=mxgraph.aws4.sagemaker;" vertex="1" parent="1">
          <mxGeometry x="660" y="90" width="78" height="78" as="geometry" />
        </mxCell>
        <mxCell id="GPQL5aS1j66FKNXq9pcH-10" value="" style="outlineConnect=0;dashed=0;verticalLabelPosition=bottom;verticalAlign=top;align=center;html=1;shape=mxgraph.aws3.cloudwatch;fillColor=#759C3E;gradientColor=none;" vertex="1" parent="1">
          <mxGeometry x="660" y="220" width="82.5" height="93" as="geometry" />
        </mxCell>
        <mxCell id="GPQL5aS1j66FKNXq9pcH-11" style="edgeStyle=orthogonalEdgeStyle;rounded=0;orthogonalLoop=1;jettySize=auto;html=1;entryX=0.35;entryY=0;entryDx=0;entryDy=0;entryPerimeter=0;" edge="1" parent="1" source="GPQL5aS1j66FKNXq9pcH-8" target="GPQL5aS1j66FKNXq9pcH-10">
          <mxGeometry relative="1" as="geometry" />
        </mxCell>
        <mxCell id="GPQL5aS1j66FKNXq9pcH-14" style="edgeStyle=orthogonalEdgeStyle;rounded=0;orthogonalLoop=1;jettySize=auto;html=1;entryX=0;entryY=0.5;entryDx=0;entryDy=0;entryPerimeter=0;" edge="1" parent="1" source="GPQL5aS1j66FKNXq9pcH-12" target="GPQL5aS1j66FKNXq9pcH-5">
          <mxGeometry relative="1" as="geometry">
            <mxPoint x="400" y="107" as="targetPoint" />
          </mxGeometry>
        </mxCell>
        <mxCell id="GPQL5aS1j66FKNXq9pcH-12" value="" style="outlineConnect=0;dashed=0;verticalLabelPosition=bottom;verticalAlign=top;align=center;html=1;shape=mxgraph.aws3.lambda_function;fillColor=#F58534;gradientColor=none;" vertex="1" parent="1">
          <mxGeometry x="240" y="70.5" width="69" height="72" as="geometry" />
        </mxCell>
        <mxCell id="GPQL5aS1j66FKNXq9pcH-13" style="edgeStyle=orthogonalEdgeStyle;rounded=0;orthogonalLoop=1;jettySize=auto;html=1;exitX=1;exitY=0.5;exitDx=0;exitDy=0;exitPerimeter=0;entryX=0;entryY=0.5;entryDx=0;entryDy=0;entryPerimeter=0;" edge="1" parent="1" source="GPQL5aS1j66FKNXq9pcH-1" target="GPQL5aS1j66FKNXq9pcH-12">
          <mxGeometry relative="1" as="geometry" />
        </mxCell>
        <mxCell id="GPQL5aS1j66FKNXq9pcH-15" value="&lt;b&gt;Amazon SageMaker&lt;/b&gt;" style="text;html=1;align=center;verticalAlign=middle;resizable=0;points=[];autosize=1;strokeColor=none;fillColor=none;" vertex="1" parent="1">
          <mxGeometry x="620" y="57" width="140" height="30" as="geometry" />
        </mxCell>
        <mxCell id="GPQL5aS1j66FKNXq9pcH-16" value="&lt;strong data-end=&quot;1658&quot; data-start=&quot;1644&quot;&gt;CloudWatch&lt;/strong&gt;" style="text;html=1;align=center;verticalAlign=middle;resizable=0;points=[];autosize=1;strokeColor=none;fillColor=none;" vertex="1" parent="1">
          <mxGeometry x="570" y="240" width="90" height="30" as="geometry" />
        </mxCell>
        <mxCell id="GPQL5aS1j66FKNXq9pcH-23" style="edgeStyle=orthogonalEdgeStyle;rounded=0;orthogonalLoop=1;jettySize=auto;html=1;" edge="1" parent="1" source="GPQL5aS1j66FKNXq9pcH-17" target="GPQL5aS1j66FKNXq9pcH-22">
          <mxGeometry relative="1" as="geometry" />
        </mxCell>
        <mxCell id="GPQL5aS1j66FKNXq9pcH-17" value="" style="outlineConnect=0;dashed=0;verticalLabelPosition=bottom;verticalAlign=top;align=center;html=1;shape=mxgraph.aws3.ecs;fillColor=#F58534;gradientColor=none;" vertex="1" parent="1">
          <mxGeometry x="560" y="428.75" width="72" height="67.5" as="geometry" />
        </mxCell>
        <mxCell id="GPQL5aS1j66FKNXq9pcH-18" value="&lt;b&gt;ECS Job&lt;/b&gt;" style="text;html=1;align=center;verticalAlign=middle;resizable=0;points=[];autosize=1;strokeColor=none;fillColor=none;" vertex="1" parent="1">
          <mxGeometry x="640" y="447.5" width="70" height="30" as="geometry" />
        </mxCell>
        <mxCell id="GPQL5aS1j66FKNXq9pcH-21" style="edgeStyle=orthogonalEdgeStyle;rounded=0;orthogonalLoop=1;jettySize=auto;html=1;" edge="1" parent="1" source="GPQL5aS1j66FKNXq9pcH-19" target="GPQL5aS1j66FKNXq9pcH-17">
          <mxGeometry relative="1" as="geometry" />
        </mxCell>
        <mxCell id="GPQL5aS1j66FKNXq9pcH-19" value="" style="outlineConnect=0;dashed=0;verticalLabelPosition=bottom;verticalAlign=top;align=center;html=1;shape=mxgraph.aws3.lambda_function;fillColor=#F58534;gradientColor=none;" vertex="1" parent="1">
          <mxGeometry x="540" y="308" width="69" height="72" as="geometry" />
        </mxCell>
        <mxCell id="GPQL5aS1j66FKNXq9pcH-20" style="edgeStyle=orthogonalEdgeStyle;rounded=0;orthogonalLoop=1;jettySize=auto;html=1;entryX=1;entryY=0.5;entryDx=0;entryDy=0;entryPerimeter=0;" edge="1" parent="1" source="GPQL5aS1j66FKNXq9pcH-10" target="GPQL5aS1j66FKNXq9pcH-19">
          <mxGeometry relative="1" as="geometry" />
        </mxCell>
        <mxCell id="GPQL5aS1j66FKNXq9pcH-22" value="" style="outlineConnect=0;dashed=0;verticalLabelPosition=bottom;verticalAlign=top;align=center;html=1;shape=mxgraph.aws3.cloudwatch;fillColor=#759C3E;gradientColor=none;" vertex="1" parent="1">
          <mxGeometry x="410" y="496.25" width="82.5" height="93" as="geometry" />
        </mxCell>
      </root>
    </mxGraphModel>
  </diagram>
</mxfile>
